<svg width="70" height="70" viewBox="0 0 70 70" fill="none" xmlns="http://www.w3.org/2000/svg">
<g clip-path="url(#clip0)">
<path d="M45.3906 20.7812H24.6094V24.7461H22.5586V28.8477H24.6094V33.0859H22.5586V37.1875H24.6094V41.4258H22.5586V45.5273H24.6094V49.4922H45.3906V45.5273H47.4414V41.4258H45.3906V37.1875H47.4414V33.0859H45.3906V28.8477H47.4414V24.7461H45.3906V20.7812ZM41.2891 37.1875H28.7109V33.0859H41.2891V37.1875ZM41.2891 45.3906H28.7109V41.2891H41.2891V45.3906ZM28.7109 28.9844V24.8828H41.2891V28.9844H28.7109Z" fill="white"/>
<path d="M68.8363 42.9853C68.1516 40.3791 67.1807 37.7435 65.9545 35.1208C70.1891 26.0519 71.2305 17.1187 68.3802 10.4414C69.38 9.34713 69.9904 7.89236 69.9904 6.29713C69.9904 2.90533 67.2314 0.146386 63.8396 0.146386C62.2444 0.146386 60.7891 0.756814 59.6948 1.75657C53.018 -1.0937 44.0849 -0.0522838 35.016 4.18226C32.3933 2.95606 29.7572 1.98515 27.1515 1.29995C17.9085 -1.12841 10.0803 0.272423 5.10825 5.2445C0.135641 10.2171 -1.26519 18.0453 1.1637 27.2877C1.84836 29.8945 2.81928 32.53 4.04548 35.1528C-0.189066 44.2216 -1.23048 53.1543 1.61979 59.8316C0.620032 60.9259 0.00960376 62.3812 0.00960376 63.9764C0.00960376 67.3677 2.76855 70.1272 6.16035 70.1272C7.75611 70.1272 9.21142 69.5162 10.3057 68.5159C12.8371 69.5969 15.6917 70.1197 18.7566 70.1197C23.7752 70.1197 29.3534 68.7205 34.984 66.0913C37.6067 67.3175 40.2428 68.2884 42.8485 68.9731C45.8115 69.7517 48.6286 70.1368 51.2535 70.1368C56.8163 70.1368 61.5138 68.407 64.8917 65.0285C69.8643 60.0565 71.2652 52.2277 68.8363 42.9853V42.9853ZM63.8396 4.24688C64.9702 4.24688 65.8899 5.16653 65.8899 6.29713C65.8899 7.4272 64.9702 8.34684 63.8396 8.34684C62.709 8.34684 61.7894 7.4272 61.7894 6.29713C61.7894 5.16653 62.709 4.24688 63.8396 4.24688V4.24688ZM41.4632 5.99272C47.7544 3.88426 53.4597 3.68772 57.7562 5.3935C57.7124 5.68884 57.6889 5.99005 57.6889 6.29713C57.6889 9.6884 60.4484 12.4479 63.8396 12.4479C64.1467 12.4479 64.4479 12.4244 64.7433 12.3811C66.449 16.6771 66.252 22.3819 64.1441 28.6742C63.9454 29.268 63.7286 29.8635 63.4978 30.4606C60.7517 25.7897 57.2195 21.2459 53.0554 17.0814C48.8914 12.9173 44.3471 9.38505 39.6767 6.63893C40.2733 6.40821 40.8693 6.19139 41.4632 5.99272ZM61.3921 35.1245C58.6609 40.4165 54.8066 45.6417 50.156 50.2928C45.5049 54.9434 40.2792 58.7977 34.9877 61.5289C29.7256 58.8169 24.5399 54.9888 19.844 50.2928C15.148 45.5963 11.3199 40.4111 8.60793 35.1485C11.3391 29.8571 15.1929 24.6319 19.844 19.9808C24.4951 15.3302 29.7203 11.4759 35.0123 8.74472C40.2743 11.4567 45.46 15.2848 50.156 19.9808C54.852 24.6767 58.6801 29.8619 61.3921 35.1245ZM5.12908 26.2458C3.08631 18.4715 4.1085 12.0431 8.00765 8.14443C10.5936 5.55799 14.2919 4.2378 18.7588 4.2378C21.0258 4.2378 23.4916 4.57853 26.109 5.26586C27.5125 5.6349 28.9267 6.09686 30.3446 6.64266C25.7245 9.35301 21.1636 12.8623 16.9446 17.0814C12.7255 21.3004 9.21622 25.8613 6.50588 30.4814C5.96007 29.0635 5.49811 27.6493 5.12908 26.2458ZM6.16035 66.0267C5.02975 66.0267 4.1101 65.107 4.1101 63.9764C4.1101 62.8458 5.02975 61.9262 6.16035 61.9262C7.29095 61.9262 8.21059 62.8458 8.21059 63.9764C8.21059 65.107 7.29041 66.0267 6.16035 66.0267ZM28.5368 64.2809C22.2451 66.3888 16.5403 66.5858 12.2438 64.8801C12.2876 64.5847 12.3111 64.2835 12.3111 63.9764C12.3111 60.5852 9.55161 57.8257 6.16035 57.8257C5.85326 57.8257 5.55152 57.8492 5.25672 57.893C3.55094 53.5965 3.74747 47.8917 5.8554 41.6C6.0546 41.0055 6.27143 40.4101 6.50214 39.813C9.24827 44.4839 12.7805 49.0276 16.9446 53.1922C21.1086 57.3563 25.6524 60.8885 30.3233 63.6346C29.7267 63.8654 29.1307 64.0822 28.5368 64.2809V64.2809ZM61.9923 62.1291C58.0937 66.0278 51.6653 67.0505 43.891 65.0077C42.488 64.6387 41.0738 64.1772 39.657 63.6314C44.2766 60.9211 48.8369 57.4107 53.0554 53.1922C57.2745 48.9732 60.7838 44.4123 63.4941 39.7922C64.0399 41.2096 64.5019 42.6243 64.8709 44.0272C66.9137 51.8021 65.8915 58.2305 61.9923 62.1291V62.1291Z" fill="white"/>
</g>
<defs>
<clipPath id="clip0">
<rect width="70" height="70" fill="white"/>
</clipPath>
</defs>
</svg>
