<svg width="72" height="72" viewBox="0 0 72 72" fill="none" xmlns="http://www.w3.org/2000/svg">
<g clip-path="url(#clip0)">
<path d="M35.349 60.861C35.0874 60.5995 34.7246 60.4489 34.3547 60.4489C33.9849 60.4489 33.6221 60.5993 33.3605 60.861C33.099 61.1224 32.9485 61.4853 32.9485 61.8551C32.9485 62.2265 33.099 62.5878 33.3605 62.8493C33.6221 63.1123 33.9849 63.2613 34.3547 63.2613C34.7246 63.2613 35.0874 63.1123 35.349 62.8493C35.6105 62.5878 35.761 62.2251 35.761 61.8551C35.761 61.4853 35.6104 61.1224 35.349 60.861Z" fill="white"/>
<path d="M42.0444 47.8883V37.5408C42.0444 37.0736 41.8123 36.6369 41.4252 36.3754C41.0381 36.114 40.5463 36.062 40.1128 36.2364L15.8813 45.9953H8.07662C3.62332 45.9953 0.00012207 49.6185 0.00012207 54.0721C0.00012207 58.5257 3.62332 62.1489 8.0769 62.1489H9.00629V70.5937C9.00629 71.3702 9.63587 71.9999 10.4125 71.9999H16.1534C16.9301 71.9999 17.5596 71.3702 17.5596 70.5937V62.8272L40.1135 71.8984C40.2826 71.9664 40.4608 72.0001 40.638 72.0001C40.9147 72.0001 41.1895 71.9183 41.4255 71.759C41.8125 71.4976 42.0444 71.0608 42.0444 70.5938V60.2465C44.8645 59.6048 46.9764 57.0789 46.9764 54.0674C46.9764 51.056 44.8645 48.5299 42.0444 47.8883ZM14.747 69.1874H11.8188V62.1487H14.7472V69.1874H14.747ZM14.7473 59.3362H8.0769C5.17413 59.3362 2.81262 56.9747 2.81262 54.0721C2.81262 51.1693 5.17413 48.8078 8.0769 48.8078H14.7479L14.7473 59.3362ZM39.232 68.5123H39.2319L17.5604 59.7959V48.351L32.9485 42.1537V56.1093C32.9485 56.8858 33.5781 57.5156 34.3547 57.5156C35.1314 57.5156 35.761 56.8858 35.761 56.1093V41.021L39.232 39.623V68.5123ZM42.0444 57.2996V50.835C43.2905 51.3793 44.1639 52.6229 44.1639 54.0673C44.1639 55.5117 43.2906 56.7553 42.0444 57.2996Z" fill="white"/>
<path d="M60.3917 52.7026H52.4298C51.6531 52.7026 51.0236 53.3324 51.0236 54.1089C51.0236 54.8854 51.6531 55.5151 52.4298 55.5151H60.3917C61.1684 55.5151 61.798 54.8854 61.798 54.1089C61.798 53.3324 61.1684 52.7026 60.3917 52.7026Z" fill="white"/>
<path d="M53.8621 42.3981C53.3129 41.8491 52.4225 41.8491 51.8732 42.3981L49.1268 45.1445C48.5777 45.6936 48.5777 46.5841 49.1268 47.1333C49.4016 47.4078 49.7615 47.5452 50.1213 47.5452C50.4812 47.5452 50.8412 47.4078 51.1157 47.1333L53.8621 44.3869C54.4112 43.8378 54.4112 42.9474 53.8621 42.3981Z" fill="white"/>
<path d="M53.9653 63.6996L51.127 60.8612C50.5779 60.3122 49.6875 60.3122 49.1382 60.8612C48.589 61.4104 48.589 62.3008 49.1382 62.8501L51.9765 65.6884C52.2512 65.9629 52.611 66.1003 52.9709 66.1003C53.3308 66.1003 53.6908 65.9629 53.9653 65.6884C54.5144 65.1393 54.5144 64.2489 53.9653 63.6996Z" fill="white"/>
<path d="M66.375 0H40.2188C37.1172 0 34.5938 2.52337 34.5938 5.62499V6.18749H10.9689C9.10784 6.18749 7.59387 7.70159 7.59387 9.56248V31.7812C7.59387 33.6421 9.10784 35.1562 10.9689 35.1562H12.4219V39.4687C12.4219 40.0375 12.7646 40.5503 13.29 40.768C13.464 40.84 13.6466 40.875 13.8279 40.875C14.1938 40.875 14.5535 40.7321 14.8225 40.4631L20.1294 35.1562H48.0629C49.9239 35.1562 51.4379 33.6421 51.4379 31.7812V27.5624H66.375C69.4766 27.5624 72 25.0391 72 21.9375V5.62499C71.9999 2.52337 69.4766 0 66.375 0ZM48.6254 31.7812C48.6254 32.0914 48.3731 32.3437 48.0629 32.3437H19.547C19.174 32.3437 18.8163 32.4919 18.5526 32.7556L15.2346 36.0738V33.7499C15.2346 32.9734 14.605 32.3437 13.8283 32.3437H10.9689C10.6586 32.3437 10.4064 32.0914 10.4064 31.7812V9.56248C10.4064 9.25226 10.6586 8.99998 10.9689 8.99998H34.5938V21.9375C34.5938 25.0391 37.1172 27.5624 40.2188 27.5624H48.6254V31.7812V31.7812ZM69.1875 21.9375C69.1875 23.4883 67.9258 24.75 66.375 24.75H40.2188C38.668 24.75 37.4063 23.4883 37.4063 21.9375V5.62499C37.4063 4.07418 38.668 2.81249 40.2188 2.81249H66.375C67.9258 2.81249 69.1875 4.07418 69.1875 5.62499V21.9375Z" fill="white"/>
<path d="M58.9465 12.5635L49.3221 7.00683C48.887 6.75554 48.351 6.75554 47.9159 7.00683C47.4808 7.25799 47.2128 7.72233 47.2128 8.22464V19.3378C47.2128 19.8401 47.4808 20.3045 47.9159 20.5556C48.1334 20.6813 48.3762 20.744 48.619 20.744C48.8619 20.744 49.1046 20.6813 49.3221 20.5556L58.9465 14.999C59.3816 14.7478 59.6496 14.2835 59.6496 13.7811C59.6496 13.2788 59.3817 12.8146 58.9465 12.5635ZM50.0253 16.9022V10.6604L55.4309 13.7813L50.0253 16.9022Z" fill="white"/>
<path d="M30.1657 14.7656H16.1033C15.3266 14.7656 14.697 15.3953 14.697 16.1719C14.697 16.9484 15.3266 17.5781 16.1033 17.5781H30.1657C30.9424 17.5781 31.572 16.9484 31.572 16.1719C31.572 15.3953 30.9424 14.7656 30.1657 14.7656Z" fill="white"/>
<path d="M31.1597 23.0527C30.8982 22.791 30.5354 22.6406 30.1655 22.6406C29.7957 22.6406 29.4329 22.791 29.1713 23.0527C28.9097 23.3142 28.7593 23.677 28.7593 24.0469C28.7593 24.4167 28.9097 24.7795 29.1713 25.0409C29.4329 25.3025 29.7957 25.4531 30.1655 25.4531C30.5368 25.4531 30.8982 25.3027 31.1597 25.0409C31.4213 24.7795 31.5718 24.4167 31.5718 24.0469C31.5718 23.677 31.4213 23.3142 31.1597 23.0527Z" fill="white"/>
<path d="M24.8908 22.6406H16.1033C15.3266 22.6406 14.697 23.2703 14.697 24.0469C14.697 24.8234 15.3266 25.4531 16.1033 25.4531H24.8908C25.6674 25.4531 26.297 24.8234 26.297 24.0469C26.297 23.2703 25.6674 22.6406 24.8908 22.6406Z" fill="white"/>
</g>
<defs>
<clipPath id="clip0">
<rect width="72" height="72" fill="white"/>
</clipPath>
</defs>
</svg>
