<svg width="80" height="80" viewBox="0 0 80 80" fill="none" xmlns="http://www.w3.org/2000/svg">
<g clip-path="url(#clip0)">
<path d="M36.9148 54.2603C37.5258 53.6494 37.5258 52.6606 36.9148 52.0496C36.3033 51.4405 35.3126 51.4405 34.7004 52.0496C34.0901 52.6606 34.0901 53.6494 34.7004 54.2603C35.3126 54.8694 36.3033 54.8694 36.9148 54.2603Z" fill="white"/>
<path d="M29.5029 17.1826C29.5029 26.6571 37.2261 34.3659 46.7192 34.3659C56.2122 34.3659 63.9354 26.6571 63.9354 17.1826C63.9354 7.70813 56.2122 0 46.7192 0C37.2261 0 29.5029 7.70813 29.5029 17.1826V17.1826ZM60.8055 17.1826C60.8055 24.9347 54.4864 31.2415 46.7192 31.2415C38.9519 31.2415 32.6328 24.9347 32.6328 17.1826C32.6328 9.43116 38.9519 3.12439 46.7192 3.12439C54.4864 3.12439 60.8055 9.43116 60.8055 17.1826Z" fill="white"/>
<path d="M18.1061 79.5379C18.7128 80.1483 19.7004 80.155 20.315 79.5507L27.9031 72.0898C29.1922 70.8032 29.5842 68.8982 29.0173 67.2424L30.6495 65.6713C31.5283 64.8241 32.6854 64.3572 33.9085 64.3572H54.7151C58.4064 64.3572 61.8952 62.9424 64.5402 60.3735C64.649 60.2679 63.714 61.3671 78.7348 43.4496C80.9626 40.819 80.6293 36.8688 77.9911 34.6429C75.3694 32.4377 71.4421 32.7544 69.2081 35.3399L59.9725 44.8138C58.8063 43.3813 57.028 42.4883 55.1065 42.4883H37.6536C35.1701 41.4513 32.5349 40.9264 29.816 40.9264C22.2793 40.9264 15.6984 44.4006 12.1668 50.9142C10.6789 50.6329 9.10965 51.0821 7.98074 52.2088L0.535164 59.6618C-0.0727125 60.2703 -0.0739356 61.2548 0.532718 61.8652L18.1061 79.5379ZM29.8154 44.0502C32.2126 44.0502 34.5304 44.5318 36.7057 45.4815C36.9038 45.5682 37.1172 45.6127 37.3331 45.6127H55.1065C56.8035 45.6127 58.237 46.9939 58.237 48.7365C58.237 50.4595 56.8329 51.8609 55.1065 51.8609H42.3368C41.4727 51.8609 40.7718 52.5604 40.7718 53.4228C40.7718 54.2858 41.4727 54.9847 42.3368 54.9847H55.1065C58.5587 54.9847 61.3669 52.1819 61.3669 48.7365C61.3669 48.4618 61.3473 48.1896 61.3118 47.9198C70.2459 38.7542 71.5057 37.4664 71.5595 37.4023C72.675 36.0882 74.6552 35.9216 75.9724 37.0299C77.2909 38.1426 77.4579 40.1177 76.3394 41.4391L62.3013 58.1884C60.2514 60.1525 57.56 61.2334 54.7151 61.2334H33.9085C31.8696 61.2334 29.9395 62.0116 28.4755 63.4234L27.1454 64.7045L14.8839 52.4676C17.7496 47.102 23.1269 44.0502 29.8154 44.0502V44.0502ZM10.1958 54.4164C10.7119 53.9013 11.5045 53.8085 12.1337 54.1967C12.4047 54.3615 11.6268 53.6547 25.6899 67.6708C26.3155 68.2952 26.2819 69.2901 25.6984 69.8724L19.2295 76.2328L3.85097 60.7671L10.1958 54.4164Z" fill="white"/>
<path d="M44.8409 7.81067V9.64111C43.0191 10.2856 41.7104 12.0221 41.7104 14.0588C41.7104 16.6425 43.8166 18.7451 46.4058 18.7451C47.2687 18.7451 47.9708 19.4458 47.9708 20.307C47.9708 21.1682 47.2687 21.8689 46.4058 21.8689C45.7374 21.8689 45.0152 21.4496 44.3737 20.6873C43.8172 20.0269 42.8301 19.942 42.1684 20.4968C41.5068 21.0523 41.4211 22.0374 41.9776 22.6978C42.8142 23.6908 43.7982 24.3829 44.8409 24.7321V26.5552C44.8409 27.4182 45.5417 28.1171 46.4058 28.1171C47.27 28.1171 47.9708 27.4182 47.9708 26.5552V24.7247C49.7926 24.0796 51.1013 22.3431 51.1013 20.307C51.1013 17.7228 48.9951 15.6207 46.4058 15.6207C45.543 15.6207 44.8409 14.92 44.8409 14.0588C44.8409 13.1976 45.543 12.4963 46.4058 12.4963C46.9605 12.4963 47.5458 12.7789 48.0986 13.313C48.7199 13.913 49.7106 13.8965 50.3118 13.277C50.9129 12.6569 50.8964 11.6681 50.2757 11.0681C49.4813 10.3009 48.6863 9.86695 47.9708 9.63013V7.81067C47.9708 6.94763 47.27 6.24817 46.4058 6.24817C45.5417 6.24817 44.8409 6.94763 44.8409 7.81067V7.81067Z" fill="white"/>
</g>
<defs>
<clipPath id="clip0">
<rect width="80" height="80" fill="white"/>
</clipPath>
</defs>
</svg>
