<svg width="128" height="129" viewBox="0 0 128 129" fill="none" xmlns="http://www.w3.org/2000/svg">
<ellipse cx="64" cy="64.5" rx="64" ry="64.5" fill="#FFE548"/>
<path d="M41.9148 89.768C38.2028 89.768 34.8961 88.8507 31.9948 87.016C29.0934 85.1813 26.8108 82.536 25.1468 79.08C23.5254 75.5813 22.7148 71.4213 22.7148 66.6C22.7148 61.7787 23.5254 57.64 25.1468 54.184C26.8108 50.6853 29.0934 48.0187 31.9948 46.184C34.8961 44.3493 38.2028 43.432 41.9148 43.432C45.6268 43.432 48.9334 44.3493 51.8348 46.184C54.7361 48.0187 56.9974 50.6853 58.6188 54.184C60.2828 57.64 61.1148 61.7787 61.1148 66.6C61.1148 71.4213 60.2828 75.5813 58.6188 79.08C56.9974 82.536 54.7361 85.1813 51.8348 87.016C48.9334 88.8507 45.6268 89.768 41.9148 89.768ZM41.9148 81C44.6454 81 46.7788 79.8267 48.3148 77.48C49.8934 75.1333 50.6828 71.5067 50.6828 66.6C50.6828 61.6933 49.8934 58.0667 48.3148 55.72C46.7788 53.3733 44.6454 52.2 41.9148 52.2C39.2268 52.2 37.0934 53.3733 35.5148 55.72C33.9788 58.0667 33.2108 61.6933 33.2108 66.6C33.2108 71.5067 33.9788 75.1333 35.5148 77.48C37.0934 79.8267 39.2268 81 41.9148 81ZM107.176 79.592H99.8803V89H89.7683V79.592H65.6403V72.616L86.7603 44.2H97.6403L78.0563 71.144H90.0883V62.76H99.8803V71.144H107.176V79.592Z" fill="white"/>
</svg>
