<svg width="129" height="129" viewBox="0 0 129 129" fill="none" xmlns="http://www.w3.org/2000/svg">
<circle cx="64.5" cy="64.5" r="64.5" fill="#FFE548"/>
<path d="M46.2898 89.768C42.5778 89.768 39.2711 88.8507 36.3698 87.016C33.4684 85.1813 31.1858 82.536 29.5218 79.08C27.9004 75.5813 27.0898 71.4213 27.0898 66.6C27.0898 61.7787 27.9004 57.64 29.5218 54.184C31.1858 50.6853 33.4684 48.0187 36.3698 46.184C39.2711 44.3493 42.5778 43.432 46.2898 43.432C50.0018 43.432 53.3084 44.3493 56.2098 46.184C59.1111 48.0187 61.3724 50.6853 62.9938 54.184C64.6578 57.64 65.4898 61.7787 65.4898 66.6C65.4898 71.4213 64.6578 75.5813 62.9938 79.08C61.3724 82.536 59.1111 85.1813 56.2098 87.016C53.3084 88.8507 50.0018 89.768 46.2898 89.768ZM46.2898 81C49.0204 81 51.1538 79.8267 52.6898 77.48C54.2684 75.1333 55.0578 71.5067 55.0578 66.6C55.0578 61.6933 54.2684 58.0667 52.6898 55.72C51.1538 53.3733 49.0204 52.2 46.2898 52.2C43.6018 52.2 41.4684 53.3733 39.8898 55.72C38.3538 58.0667 37.5858 61.6933 37.5858 66.6C37.5858 71.5067 38.3538 75.1333 39.8898 77.48C41.4684 79.8267 43.6018 81 46.2898 81ZM103.624 80.552V89H69.7682V82.28L87.0483 65.96C88.8829 64.2107 90.1203 62.7173 90.7603 61.48C91.4003 60.2 91.7203 58.9413 91.7203 57.704C91.7203 55.912 91.1016 54.5467 89.8643 53.608C88.6696 52.6267 86.8989 52.136 84.5522 52.136C82.5896 52.136 80.8189 52.52 79.2403 53.288C77.6616 54.0133 76.3389 55.1227 75.2723 56.616L67.7203 51.752C69.4696 49.1493 71.8803 47.1227 74.9523 45.672C78.0243 44.1787 81.5443 43.432 85.5123 43.432C88.8403 43.432 91.7416 43.9867 94.2163 45.096C96.7336 46.1627 98.6749 47.6987 100.04 49.704C101.448 51.6667 102.152 53.992 102.152 56.68C102.152 59.112 101.64 61.3947 100.616 63.528C99.5923 65.6613 97.6083 68.0933 94.6643 70.824L84.3603 80.552H103.624Z" fill="white"/>
</svg>
