<svg width="128" height="129" viewBox="0 0 128 129" fill="none" xmlns="http://www.w3.org/2000/svg">
<ellipse cx="64" cy="64.5" rx="64" ry="64.5" fill="#FFE548"/>
<path d="M44.946 89.768C41.234 89.768 37.9273 88.8507 35.026 87.016C32.1247 85.1813 29.842 82.536 28.178 79.08C26.5567 75.5813 25.746 71.4213 25.746 66.6C25.746 61.7787 26.5567 57.64 28.178 54.184C29.842 50.6853 32.1247 48.0187 35.026 46.184C37.9273 44.3493 41.234 43.432 44.946 43.432C48.658 43.432 51.9647 44.3493 54.866 46.184C57.7673 48.0187 60.0287 50.6853 61.65 54.184C63.314 57.64 64.146 61.7787 64.146 66.6C64.146 71.4213 63.314 75.5813 61.65 79.08C60.0287 82.536 57.7673 85.1813 54.866 87.016C51.9647 88.8507 48.658 89.768 44.946 89.768ZM44.946 81C47.6767 81 49.81 79.8267 51.346 77.48C52.9247 75.1333 53.714 71.5067 53.714 66.6C53.714 61.6933 52.9247 58.0667 51.346 55.72C49.81 53.3733 47.6767 52.2 44.946 52.2C42.258 52.2 40.1247 53.3733 38.546 55.72C37.01 58.0667 36.242 61.6933 36.242 66.6C36.242 71.5067 37.01 75.1333 38.546 77.48C40.1247 79.8267 42.258 81 44.946 81ZM84.5435 61.032C90.8582 61.032 95.5088 62.2907 98.4955 64.808C101.525 67.3253 103.04 70.696 103.04 74.92C103.04 77.6507 102.357 80.1467 100.992 82.408C99.6262 84.6267 97.5355 86.4187 94.7195 87.784C91.9462 89.1067 88.5115 89.768 84.4155 89.768C81.2582 89.768 78.1435 89.3627 75.0715 88.552C72.0422 87.6987 69.4608 86.504 67.3275 84.968L71.4235 77.032C73.1302 78.312 75.0928 79.3147 77.3115 80.04C79.5302 80.7227 81.8128 81.064 84.1595 81.064C86.7622 81.064 88.8102 80.552 90.3035 79.528C91.7968 78.504 92.5435 77.0747 92.5435 75.24C92.5435 73.32 91.7542 71.8693 90.1755 70.888C88.6395 69.9067 85.9515 69.416 82.1115 69.416H70.6555L72.9595 44.2H100.288V52.52H81.5995L80.8955 61.032H84.5435Z" fill="white"/>
</svg>
