<svg width="129" height="129" viewBox="0 0 129 129" fill="none" xmlns="http://www.w3.org/2000/svg">
<circle cx="64.5" cy="64.5" r="64.5" fill="#FFE548"/>
<path d="M49.6335 89.768C45.9215 89.768 42.6148 88.8507 39.7135 87.016C36.8122 85.1813 34.5295 82.536 32.8655 79.08C31.2442 75.5813 30.4335 71.4213 30.4335 66.6C30.4335 61.7787 31.2442 57.64 32.8655 54.184C34.5295 50.6853 36.8122 48.0187 39.7135 46.184C42.6148 44.3493 45.9215 43.432 49.6335 43.432C53.3455 43.432 56.6522 44.3493 59.5535 46.184C62.4548 48.0187 64.7162 50.6853 66.3375 54.184C68.0015 57.64 68.8335 61.7787 68.8335 66.6C68.8335 71.4213 68.0015 75.5813 66.3375 79.08C64.7162 82.536 62.4548 85.1813 59.5535 87.016C56.6522 88.8507 53.3455 89.768 49.6335 89.768ZM49.6335 81C52.3642 81 54.4975 79.8267 56.0335 77.48C57.6122 75.1333 58.4015 71.5067 58.4015 66.6C58.4015 61.6933 57.6122 58.0667 56.0335 55.72C54.4975 53.3733 52.3642 52.2 49.6335 52.2C46.9455 52.2 44.8122 53.3733 43.2335 55.72C41.6975 58.0667 40.9295 61.6933 40.9295 66.6C40.9295 71.5067 41.6975 75.1333 43.2335 77.48C44.8122 79.8267 46.9455 81 49.6335 81ZM90.776 44.2V89H80.408V52.52H71.448V44.2H90.776Z" fill="white"/>
</svg>
