<svg width="128" height="129" viewBox="0 0 128 129" fill="none" xmlns="http://www.w3.org/2000/svg">
<ellipse cx="64" cy="64.5" rx="64" ry="64.5" fill="#FFE548"/>
<path d="M45.3523 89.768C41.6403 89.768 38.3336 88.8507 35.4323 87.016C32.5309 85.1813 30.2483 82.536 28.5843 79.08C26.9629 75.5813 26.1523 71.4213 26.1523 66.6C26.1523 61.7787 26.9629 57.64 28.5843 54.184C30.2483 50.6853 32.5309 48.0187 35.4323 46.184C38.3336 44.3493 41.6403 43.432 45.3523 43.432C49.0643 43.432 52.3709 44.3493 55.2723 46.184C58.1736 48.0187 60.4349 50.6853 62.0563 54.184C63.7203 57.64 64.5523 61.7787 64.5523 66.6C64.5523 71.4213 63.7203 75.5813 62.0563 79.08C60.4349 82.536 58.1736 85.1813 55.2723 87.016C52.3709 88.8507 49.0643 89.768 45.3523 89.768ZM45.3523 81C48.0829 81 50.2163 79.8267 51.7523 77.48C53.3309 75.1333 54.1203 71.5067 54.1203 66.6C54.1203 61.6933 53.3309 58.0667 51.7523 55.72C50.2163 53.3733 48.0829 52.2 45.3523 52.2C42.6643 52.2 40.5309 53.3733 38.9523 55.72C37.4163 58.0667 36.6483 61.6933 36.6483 66.6C36.6483 71.5067 37.4163 75.1333 38.9523 77.48C40.5309 79.8267 42.6643 81 45.3523 81ZM89.8928 62.44C93.8181 63.08 96.8261 64.552 98.9168 66.856C101.007 69.1173 102.053 71.9333 102.053 75.304C102.053 77.9067 101.37 80.3173 100.005 82.536C98.6394 84.712 96.5488 86.4613 93.7328 87.784C90.9594 89.1067 87.5461 89.768 83.4928 89.768C80.3354 89.768 77.2208 89.3627 74.1488 88.552C71.1194 87.6987 68.5381 86.504 66.4047 84.968L70.4368 77.032C72.1434 78.312 74.1061 79.3147 76.3248 80.04C78.5861 80.7227 80.8901 81.064 83.2368 81.064C85.8394 81.064 87.8874 80.5733 89.3808 79.592C90.8741 78.568 91.6208 77.1387 91.6208 75.304C91.6208 71.6347 88.8261 69.8 83.2368 69.8H78.5008V62.952L87.7168 52.52H68.6448V44.2H100.005V50.92L89.8928 62.44Z" fill="white"/>
</svg>
