<svg width="56" height="56" viewBox="0 0 56 56" fill="none" xmlns="http://www.w3.org/2000/svg">
<circle cx="28" cy="28" r="28" fill="#C4C4C4"/>
<path fill-rule="evenodd" clip-rule="evenodd" d="M35 20.3334C35 24.293 31.8675 27.5001 28 27.5001C24.1325 27.5001 21 24.293 21 20.3334C21 16.3738 24.1325 13.1667 28 13.1667C31.8675 13.1667 35 16.3738 35 20.3334ZM14 38.2501C14 33.4843 23.3275 31.0835 28 31.0835C32.6725 31.0835 42 33.4843 42 38.2501V40.0418C42 41.0272 41.2125 41.8335 40.25 41.8335H15.75C14.7875 41.8335 14 41.0272 14 40.0418V38.2501Z" fill="black" fill-opacity="0.54"/>
</svg>
