<svg width="82" height="82" viewBox="0 0 82 82" fill="none" xmlns="http://www.w3.org/2000/svg">
<g clip-path="url(#clip0)">
<path d="M76.5547 17.0523H73.3484L73.3516 11.3204C73.3534 7.47229 70.2248 4.33986 66.376 4.33798L42.0423 4.32422C42.041 4.32422 42.0404 4.32422 42.0391 4.32422C40.654 4.32422 39.3515 4.86349 38.3718 5.8432L2.04387 42.1711C0.725708 43.4893 0 45.2416 0 47.106C0 48.9703 0.725708 50.7226 2.04387 52.0408L25.6194 75.6163C26.9801 76.977 28.7674 77.657 30.5542 77.657C32.3416 77.657 34.1289 76.977 35.4896 75.6163L58.3619 52.744C58.9875 52.1183 58.9875 51.1042 58.3619 50.4792C57.7363 49.8536 56.7222 49.8536 56.0966 50.4792L33.2243 73.3516C31.7522 74.8236 29.3568 74.8236 27.8847 73.3516L4.3092 49.7761C3.59601 49.0629 3.20312 48.1144 3.20312 47.106C3.20312 46.0975 3.59601 45.149 4.3092 44.4359L40.6365 8.10854C41.0113 7.7338 41.5092 7.52734 42.0391 7.52734H42.0404L66.3741 7.54111C68.4562 7.54173 70.1497 9.23714 70.1484 11.3192L70.1409 24.7398H62.927C62.3058 24.7398 61.7434 24.4858 61.3367 24.0766C62.0067 23.7895 62.6349 23.3747 63.181 22.8285C65.4826 20.5263 65.4826 16.7814 63.181 14.4798C60.8788 12.1775 57.1339 12.1775 54.8316 14.4798C52.53 16.7814 52.53 20.5263 54.8316 22.8285C55.685 23.6819 56.7372 24.218 57.8402 24.4388C58.6241 26.4852 60.6079 27.9429 62.927 27.9429H70.1391L70.1347 35.6204C70.1347 36.1503 69.9282 36.6476 69.5535 37.0217L65.1567 41.4192C64.5311 42.0448 64.5311 43.0589 65.1567 43.6845C65.7817 44.3095 66.7958 44.3095 67.4214 43.6845L71.8188 39.2871C72.7973 38.308 73.3372 37.0067 73.3378 35.6223L73.3422 27.9429H76.5547C79.557 27.9429 82 25.5005 82 22.4976C82 19.4953 79.557 17.0523 76.5547 17.0523V17.0523ZM57.097 16.7445C57.6237 16.2177 58.315 15.9549 59.0069 15.9549C59.6982 15.9549 60.3895 16.2183 60.9163 16.7445C61.0827 16.9115 61.2204 17.0961 61.3342 17.2906C59.5762 17.8293 58.1949 19.2363 57.69 21.0092C57.478 20.891 57.2771 20.744 57.097 20.5638C56.0441 19.5103 56.0441 17.7974 57.097 16.7445V16.7445ZM76.5547 24.7398H73.3441L73.3466 20.2554H76.5547C77.7909 20.2554 78.7969 21.2614 78.7969 22.4976C78.7969 23.7338 77.7909 24.7398 76.5547 24.7398Z" fill="white"/>
<path d="M25.8515 44.7324C26.0486 45.4412 26.6923 45.9048 27.393 45.9048C27.5356 45.9048 27.6802 45.886 27.8234 45.846L44.2645 41.2697C45.1165 41.0326 45.6151 40.1492 45.378 39.2971C45.1409 38.4457 44.2582 37.947 43.4055 38.1841L26.9645 42.7599C26.113 42.9976 25.6144 43.8803 25.8515 44.7324V44.7324Z" fill="white"/>
<path d="M33.0885 46.8457C32.1964 47.7378 31.7053 48.9234 31.7053 50.1852C31.7053 51.4465 32.1964 52.632 33.0885 53.5241C34.0094 54.4444 35.2181 54.9048 36.4274 54.9048C37.6367 54.9048 38.846 54.4444 39.7669 53.5241C41.6081 51.6829 41.6081 48.6869 39.7669 46.8457C37.9258 45.0046 34.9297 45.0046 33.0885 46.8457ZM37.5016 51.2588C36.9091 51.8512 35.9457 51.8512 35.3533 51.2588C35.0661 50.9723 34.9084 50.5906 34.9084 50.1846C34.9084 49.7792 35.0667 49.3976 35.3533 49.1104C35.6498 48.8145 36.0389 48.6662 36.4274 48.6662C36.8166 48.6662 37.2057 48.8145 37.5016 49.1104C38.0941 49.7029 38.0941 50.667 37.5016 51.2588Z" fill="white"/>
<path d="M40.5602 37.3102C42.4014 35.4684 42.4014 32.4729 40.5602 30.6318C39.6681 29.7396 38.482 29.2485 37.2207 29.2485C35.9595 29.2485 34.7734 29.7396 33.8819 30.6318C32.0407 32.4729 32.0407 35.4684 33.8819 37.3102C34.8028 38.2304 36.0114 38.6909 37.2207 38.6909C38.43 38.6909 39.6393 38.2304 40.5602 37.3102ZM36.1466 32.8965C36.4337 32.6093 36.8153 32.4517 37.2207 32.4517C37.6268 32.4517 38.0084 32.6093 38.2949 32.8965C38.8874 33.4889 38.8874 34.4524 38.2949 35.0448C37.7031 35.6373 36.739 35.6373 36.1466 35.0448C35.5547 34.4524 35.5547 33.4889 36.1466 32.8965Z" fill="white"/>
<path d="M15.9293 41.4229C15.3037 40.7973 14.2896 40.7973 13.6639 41.4229L9.11325 45.9736C8.81296 46.2739 8.64404 46.6812 8.64404 47.106C8.64404 47.5308 8.81296 47.938 9.11325 48.2383L29.4224 68.5475C29.7346 68.8597 30.145 69.0161 30.5548 69.0161C30.9646 69.0161 31.3743 68.8597 31.6871 68.5475L62.0518 38.1823C62.6774 37.5567 62.6774 36.5425 62.0518 35.9169L41.7432 15.6084C41.4429 15.3081 41.0356 15.1392 40.6109 15.1392C40.1861 15.1392 39.7788 15.3081 39.4785 15.6084L22.724 32.3628C22.0984 32.9884 22.0984 34.0026 22.724 34.6282C23.349 35.2532 24.3631 35.2532 24.9887 34.6282L40.6109 19.0061L58.6547 37.0499L30.5548 65.1498L12.5109 47.106L15.9293 43.6876C16.5543 43.062 16.5549 42.0485 15.9293 41.4229V41.4229Z" fill="white"/>
<path d="M61.7596 45.48C61.338 45.48 60.9251 45.6514 60.6273 45.9492C60.3295 46.247 60.1581 46.6605 60.1581 47.0815C60.1581 47.5026 60.3295 47.9161 60.6273 48.2139C60.9251 48.5117 61.338 48.6831 61.7596 48.6831C62.1807 48.6831 62.5936 48.5117 62.892 48.2139C63.1898 47.9161 63.3612 47.5026 63.3612 47.0815C63.3612 46.6605 63.1898 46.247 62.892 45.9492C62.5936 45.6514 62.1807 45.48 61.7596 45.48Z" fill="white"/>
<path d="M20.4581 39.157C20.7578 38.8592 20.928 38.4476 20.928 38.0247C20.928 37.6036 20.7578 37.192 20.4581 36.8923C20.1604 36.5945 19.7487 36.4231 19.3264 36.4231C18.9048 36.4231 18.4919 36.5945 18.1941 36.8923C17.8956 37.1901 17.7249 37.6036 17.7249 38.0247C17.7249 38.4476 17.8956 38.8592 18.1941 39.157C18.4931 39.4567 18.9048 39.6262 19.3264 39.6262C19.7487 39.6262 20.1604 39.4567 20.4581 39.157Z" fill="white"/>
</g>
<defs>
<clipPath id="clip0">
<rect width="82" height="82" fill="white"/>
</clipPath>
</defs>
</svg>
