<svg width="64" height="64" viewBox="0 0 64 64" fill="none" xmlns="http://www.w3.org/2000/svg">
<path d="M58.375 0.125H5.625C2.52338 0.125 0 2.64838 0 5.75V58.25C0 61.3516 2.52338 63.875 5.625 63.875H58.375C61.4766 63.875 64 61.3516 64 58.25V5.75C64 2.64838 61.4766 0.125 58.375 0.125ZM5.625 3.875H58.375C59.4089 3.875 60.25 4.71613 60.25 5.75V15.125H3.75V5.75C3.75 4.71613 4.59113 3.875 5.625 3.875ZM58.375 60.125H5.625C4.59113 60.125 3.75 59.2839 3.75 58.25V18.875H60.25V58.25C60.25 59.2839 59.4089 60.125 58.375 60.125Z" fill="white"/>
<path d="M38.3636 24.6516C37.4119 24.2437 36.3095 24.6846 35.9016 25.6363L24.6516 51.8863C24.2436 52.8381 24.6846 53.9404 25.6364 54.3483C26.5885 54.7563 27.6906 54.3151 28.0984 53.3636L39.3484 27.1136C39.7564 26.1617 39.3154 25.0595 38.3636 24.6516V24.6516Z" fill="white"/>
<path d="M22.2141 30.8286C21.5671 30.02 20.387 29.889 19.5788 30.5358L10.2038 38.0358C9.26638 38.7855 9.26575 40.2138 10.2038 40.9641L19.5788 48.4641C20.3874 49.1111 21.5675 48.9798 22.2141 48.1713C22.861 47.3627 22.73 46.1827 21.9213 45.536L14.3765 39.5L21.9213 33.4641C22.73 32.8172 22.861 31.6373 22.2141 30.8286V30.8286Z" fill="white"/>
<path d="M53.7962 38.0359L44.4212 30.5359C43.6126 29.8889 42.4326 30.02 41.7858 30.8286C41.139 31.6373 41.27 32.8173 42.0787 33.464L49.6235 39.5L42.0787 45.5359C41.27 46.1828 41.139 47.3626 41.7858 48.1713C42.4336 48.9808 43.6137 49.1103 44.4212 48.464L53.7962 40.964C54.7336 40.2144 54.7342 38.7861 53.7962 38.0359Z" fill="white"/>
<path d="M9.5 11.375C10.5355 11.375 11.375 10.5355 11.375 9.5C11.375 8.46447 10.5355 7.625 9.5 7.625C8.46447 7.625 7.625 8.46447 7.625 9.5C7.625 10.5355 8.46447 11.375 9.5 11.375Z" fill="white"/>
<path d="M17 11.375C18.0355 11.375 18.875 10.5355 18.875 9.5C18.875 8.46447 18.0355 7.625 17 7.625C15.9645 7.625 15.125 8.46447 15.125 9.5C15.125 10.5355 15.9645 11.375 17 11.375Z" fill="white"/>
<path d="M24.5 11.375C25.5355 11.375 26.375 10.5355 26.375 9.5C26.375 8.46447 25.5355 7.625 24.5 7.625C23.4645 7.625 22.625 8.46447 22.625 9.5C22.625 10.5355 23.4645 11.375 24.5 11.375Z" fill="white"/>
<path d="M43.25 11.375H54.5C55.5355 11.375 56.375 10.5355 56.375 9.5C56.375 8.4645 55.5355 7.625 54.5 7.625H43.25C42.2145 7.625 41.375 8.4645 41.375 9.5C41.375 10.5355 42.2145 11.375 43.25 11.375Z" fill="white"/>
</svg>
